<svg width="46" height="46" viewBox="0 0 46 46" fill="none" xmlns="http://www.w3.org/2000/svg">
<g clip-path="url(#clip0)">
<path fill-rule="evenodd" clip-rule="evenodd" d="M0 22.75C0 10.1855 10.1855 0 22.75 0C35.3145 0 45.5 10.1855 45.5 22.75C45.5 35.3145 35.3145 45.5 22.75 45.5C10.1855 45.5 0 35.3145 0 22.75ZM22.7511 10.6167C19.4559 10.6167 19.0423 10.6311 17.7481 10.69C16.4564 10.7491 15.5747 10.9536 14.8032 11.2537C14.0052 11.5636 13.3282 11.9781 12.6538 12.6528C11.9789 13.3272 11.5643 14.0042 11.2534 14.802C10.9526 15.5737 10.7479 16.4556 10.6897 17.7468C10.6318 19.0411 10.6167 19.4549 10.6167 22.7501C10.6167 26.0454 10.6313 26.4577 10.69 27.7519C10.7494 29.0436 10.9539 29.9253 11.2537 30.6968C11.5638 31.4948 11.9784 32.1718 12.6531 32.8462C13.3272 33.5211 14.0042 33.9367 14.8017 34.2466C15.5737 34.5466 16.4556 34.7511 17.7471 34.8103C19.0413 34.8692 19.4546 34.8836 22.7496 34.8836C26.0451 34.8836 26.4574 34.8692 27.7516 34.8103C29.0433 34.7511 29.9261 34.5466 30.698 34.2466C31.4958 33.9367 32.1718 33.5211 32.8459 32.8462C33.5208 32.1718 33.9354 31.4948 34.2463 30.697C34.5446 29.9253 34.7494 29.0433 34.81 27.7521C34.8682 26.4579 34.8833 26.0454 34.8833 22.7501C34.8833 19.4549 34.8682 19.0413 34.81 17.7471C34.7494 16.4554 34.5446 15.5737 34.2463 14.8022C33.9354 14.0042 33.5208 13.3272 32.8459 12.6528C32.171 11.9779 31.4961 11.5633 30.6973 11.2537C29.9238 10.9536 29.0416 10.7491 27.7499 10.69C26.4556 10.6311 26.0436 10.6167 22.7473 10.6167H22.7511Z" fill="#1D215E"/>
<path fill-rule="evenodd" clip-rule="evenodd" d="M21.6631 12.8033C21.9862 12.8028 22.3466 12.8033 22.7516 12.8033C25.9912 12.8033 26.3752 12.815 27.6545 12.8731C28.8375 12.9272 29.4796 13.1249 29.9073 13.2909C30.4735 13.5109 30.8772 13.7737 31.3016 14.1984C31.7263 14.6231 31.9892 15.0275 32.2096 15.5938C32.3757 16.021 32.5736 16.663 32.6275 17.846C32.6856 19.1251 32.6983 19.5093 32.6983 22.7475C32.6983 25.9856 32.6856 26.3698 32.6275 27.6489C32.5734 28.8319 32.3757 29.4739 32.2096 29.9011C31.9897 30.4674 31.7263 30.8706 31.3016 31.295C30.877 31.7196 30.4738 31.9825 29.9073 32.2025C29.4801 32.3693 28.8375 32.5665 27.6545 32.6206C26.3755 32.6787 25.9912 32.6913 22.7516 32.6913C19.5117 32.6913 19.1277 32.6787 17.8487 32.6206C16.6657 32.566 16.0236 32.3683 15.5956 32.2022C15.0294 31.9823 14.625 31.7194 14.2003 31.2947C13.7756 30.87 13.5127 30.4666 13.2923 29.9001C13.1262 29.4729 12.9283 28.8309 12.8745 27.6479C12.8163 26.3688 12.8047 25.9846 12.8047 22.7444C12.8047 19.5043 12.8163 19.1221 12.8745 17.843C12.9285 16.66 13.1262 16.0179 13.2923 15.5902C13.5122 15.024 13.7756 14.6196 14.2003 14.1949C14.625 13.7702 15.0294 13.5073 15.5956 13.2869C16.0233 13.1201 16.6657 12.9229 17.8487 12.8685C18.968 12.818 19.4018 12.8028 21.6631 12.8003V12.8033ZM29.2283 14.818C28.4245 14.818 27.7723 15.4694 27.7723 16.2735C27.7723 17.0773 28.4245 17.7295 29.2283 17.7295C30.0322 17.7295 30.6844 17.0773 30.6844 16.2735C30.6844 15.4697 30.0322 14.8175 29.2283 14.8175V14.818ZM22.7516 16.5192C19.3105 16.5192 16.5206 19.3091 16.5206 22.7502C16.5206 26.1913 19.3105 28.98 22.7516 28.98C26.1927 28.98 28.9816 26.1913 28.9816 22.7502C28.9816 19.3091 26.1924 16.5192 22.7513 16.5192H22.7516Z" fill="#1D215E"/>
<path fill-rule="evenodd" clip-rule="evenodd" d="M22.7515 18.7056C24.9851 18.7056 26.796 20.5162 26.796 22.7501C26.796 24.9836 24.9851 26.7945 22.7515 26.7945C20.5177 26.7945 18.707 24.9836 18.707 22.7501C18.707 20.5162 20.5177 18.7056 22.7515 18.7056Z" fill="#1D215E"/>
</g>
<defs>
<clipPath id="clip0">
<rect width="45.5" height="45.5" fill="white"/>
</clipPath>
</defs>
</svg>
