<svg width="46" height="46" viewBox="0 0 46 46" fill="none" xmlns="http://www.w3.org/2000/svg">
<g clip-path="url(#clip0)">
<path fill-rule="evenodd" clip-rule="evenodd" d="M0 22.75C0 10.1855 10.1855 0 22.75 0C35.3145 0 45.5 10.1855 45.5 22.75C45.5 35.3145 35.3145 45.5 22.75 45.5C10.1855 45.5 0 35.3145 0 22.75ZM22.0686 18.4915L22.1164 19.2787L21.3207 19.1823C18.4245 18.8128 15.8943 17.5597 13.7461 15.4551L12.6958 14.4109L12.4253 15.182C11.8524 16.901 12.2184 18.7164 13.4119 19.9374C14.0484 20.6121 13.9052 20.7085 12.8072 20.3069C12.4253 20.1783 12.0911 20.082 12.0593 20.1301C11.9479 20.2426 12.3298 21.7046 12.6321 22.2829C13.0459 23.0862 13.8893 23.8734 14.8122 24.3393L15.592 24.7088L14.669 24.7248C13.7779 24.7248 13.7461 24.7409 13.8415 25.0783C14.1598 26.1225 15.4169 27.231 16.8173 27.713L17.8039 28.0504L16.9446 28.5644C15.6716 29.3035 14.1757 29.7212 12.6799 29.7533C11.9638 29.7693 11.375 29.8336 11.375 29.8818C11.375 30.0425 13.3164 30.9421 14.4462 31.2956C17.8357 32.3398 21.8618 31.89 24.8853 30.1067C27.0335 28.8376 29.1818 26.3153 30.1843 23.8734C30.7254 22.5721 31.2664 20.1944 31.2664 19.0538C31.2664 18.3148 31.3142 18.2184 32.2053 17.3348C32.7305 16.8207 33.2238 16.2584 33.3192 16.0977C33.4784 15.7925 33.4625 15.7925 32.6509 16.0656C31.2983 16.5476 31.1073 16.4833 31.7757 15.7604C32.269 15.2463 32.8578 14.3145 32.8578 14.0414C32.8578 13.9932 32.6191 14.0735 32.3485 14.2181C32.0621 14.3788 31.4256 14.6197 30.9482 14.7643L30.0889 15.0374L29.3091 14.5073C28.8795 14.2181 28.2748 13.8968 27.9565 13.8004C27.1449 13.5755 25.9037 13.6076 25.1717 13.8647C23.1826 14.5876 21.9254 16.4512 22.0686 18.4915Z" fill="#1D215E"/>
</g>
<defs>
<clipPath id="clip0">
<rect width="45.5" height="45.5" fill="white"/>
</clipPath>
</defs>
</svg>
