<svg width="46" height="46" viewBox="0 0 46 46" fill="none" xmlns="http://www.w3.org/2000/svg">
<g clip-path="url(#clip0)">
<path fill-rule="evenodd" clip-rule="evenodd" d="M22.75 45.5C10.1855 45.5 0 35.3145 0 22.75C0 10.1855 10.1855 0 22.75 0C35.3145 0 45.5 10.1855 45.5 22.75C45.5 35.3145 35.3145 45.5 22.75 45.5ZM23.067 21.4732C24.9298 21.4732 33.987 16.38 33.987 16.38L34.0015 15.47C34.0015 14.4654 33.1862 13.65 32.1788 13.65H13.9552C12.9487 13.65 12.1333 14.4654 12.1333 15.47V16.2808C12.1333 16.2808 21.2898 21.4732 23.067 21.4732ZM23.067 23.9757C21.2898 23.9757 12.147 19.11 12.1479 19.11L12.1333 30.03C12.1333 31.0346 12.9496 31.85 13.9552 31.85H32.1788C33.1862 31.85 34.0015 31.0346 34.0015 30.03L33.987 19.11C33.987 19.11 25.0153 23.9757 23.067 23.9757Z" fill="#1D215E"/>
</g>
<defs>
<clipPath id="clip0">
<rect width="45.5" height="45.5" fill="white"/>
</clipPath>
</defs>
</svg>
