<svg width="46" height="46" viewBox="0 0 46 46" fill="none" xmlns="http://www.w3.org/2000/svg">
<g clip-path="url(#clip0)">
<path fill-rule="evenodd" clip-rule="evenodd" d="M0 22.75C0 10.1855 10.1855 0 22.75 0C35.3145 0 45.5 10.1855 45.5 22.75C45.5 35.3145 35.3145 45.5 22.75 45.5C10.1855 45.5 0 35.3145 0 22.75ZM25.1213 36.1265V23.7493H28.5379L28.9907 19.4841H25.1213L25.1271 17.3493C25.1271 16.2368 25.2328 15.6407 26.8306 15.6407H28.9665V11.375H25.5494C21.4448 11.375 20.0002 13.4441 20.0002 16.9237V19.4845H17.4417V23.7498H20.0002V36.1265H25.1213Z" fill="#1D215E"/>
</g>
<defs>
<clipPath id="clip0">
<rect width="45.5" height="45.5" fill="white"/>
</clipPath>
</defs>
</svg>
