<svg width="46" height="46" viewBox="0 0 46 46" fill="none" xmlns="http://www.w3.org/2000/svg">
<g clip-path="url(#clip0)">
<path fill-rule="evenodd" clip-rule="evenodd" d="M0 22.7488C0 10.185 10.185 0 22.7488 0C35.3126 0 45.4976 10.185 45.4976 22.7488C45.4976 35.3126 35.3126 45.4976 22.7488 45.4976C10.185 45.4976 0 35.3126 0 22.7488ZM16.0763 18.8416H10.921V34.3313H16.0763V18.8416ZM16.4159 14.05C16.3824 12.5312 15.2964 11.3744 13.5327 11.3744C11.7691 11.3744 10.6161 12.5312 10.6161 14.05C10.6161 15.5373 11.735 16.7273 13.4658 16.7273H13.4988C15.2964 16.7273 16.4159 15.5373 16.4159 14.05ZM34.6686 25.45C34.6686 20.6922 32.1253 18.4778 28.7328 18.4778C25.9957 18.4778 24.7702 19.9813 24.086 21.036V18.842H18.93C18.9979 20.2955 18.93 34.3317 18.93 34.3317H24.086V25.681C24.086 25.218 24.1194 24.7562 24.2557 24.4248C24.6283 23.4999 25.4767 22.5424 26.901 22.5424C28.7672 22.5424 29.5132 23.9628 29.5132 26.0443V34.3313H34.6684L34.6686 25.45Z" fill="#1D215E"/>
</g>
<defs>
<clipPath id="clip0">
<rect width="45.4976" height="45.4976" fill="white"/>
</clipPath>
</defs>
</svg>
