<svg width="46" height="46" viewBox="0 0 46 46" fill="none" xmlns="http://www.w3.org/2000/svg">
<g clip-path="url(#clip0)">
<path fill-rule="evenodd" clip-rule="evenodd" d="M0 22.75C0 10.1855 10.1855 0 22.75 0C35.3145 0 45.5 10.1855 45.5 22.75C45.5 35.3145 35.3145 45.5 22.75 45.5C10.1855 45.5 0 35.3145 0 22.75ZM34.3762 17.1319C34.0971 16.0598 33.2748 15.2156 32.2307 14.9291C30.3384 14.4083 22.75 14.4083 22.75 14.4083C22.75 14.4083 15.1616 14.4083 13.2692 14.9291C12.225 15.2156 11.4027 16.0598 11.1236 17.1319C10.6167 19.075 10.6167 23.1292 10.6167 23.1292C10.6167 23.1292 10.6167 27.1832 11.1236 29.1264C11.4027 30.1985 12.225 31.0428 13.2692 31.3294C15.1616 31.85 22.75 31.85 22.75 31.85C22.75 31.85 30.3384 31.85 32.2307 31.3294C33.2748 31.0428 34.0971 30.1985 34.3762 29.1264C34.8833 27.1832 34.8833 23.1292 34.8833 23.1292C34.8833 23.1292 34.8833 19.075 34.3762 17.1319Z" fill="#1D215E"/>
<path fill-rule="evenodd" clip-rule="evenodd" d="M20.4746 27.3V19.7167L26.5413 23.5085L20.4746 27.3Z" fill="#1D215E"/>
</g>
<defs>
<clipPath id="clip0">
<rect width="45.5" height="45.5" fill="white"/>
</clipPath>
</defs>
</svg>
